<?xml version="1.0" encoding="utf-8"?>
<!-- Generator: Adobe Illustrator 20.0.0, SVG Export Plug-In . SVG Version: 6.00 Build 0)  -->
<svg version="1.1" id="Layer_1" xmlns="http://www.w3.org/2000/svg" xmlns:xlink="http://www.w3.org/1999/xlink" x="0px" y="0px"
	 viewBox="0 0 841.7 595.2" style="enable-background:new 0 0 841.7 595.2;" xml:space="preserve">
<style type="text/css">
	.st0{fill:#FFFFFF;}
	.st1{fill-opacity:0;}
	.st2{fill:#86060E;stroke:#000000;stroke-linecap:square;stroke-linejoin:bevel;}
	.st3{opacity:0.86;}
	.st4{fill:#06C1BB;stroke:#000000;stroke-linecap:square;stroke-linejoin:bevel;}
	.st5{fill:#F52D48;stroke:#000000;stroke-linecap:square;stroke-linejoin:bevel;}
	.st6{fill:none;stroke:#2AB11E;stroke-linecap:square;stroke-linejoin:bevel;}
	.st7{fill:#529340;stroke:#35671A;stroke-linecap:square;stroke-linejoin:bevel;}
	.st8{fill:none;stroke:#99729D;stroke-linecap:square;stroke-linejoin:bevel;}
	.st9{fill:#676A8A;stroke:#604566;stroke-linecap:square;stroke-linejoin:bevel;}
	.st10{fill:none;stroke:#E147E1;stroke-width:3.0709;stroke-linecap:square;stroke-linejoin:bevel;}
	.st11{fill:#E723CA;stroke:#AC1598;stroke-linecap:square;stroke-linejoin:bevel;}
</style>
<desc>Generated with Qt</desc>
<g>
	<g transform="matrix(1,0,0,1,0,0)">
	</g>
	<g transform="matrix(11.8081,0,0,11.8081,0,0)">
	</g>
	<g transform="matrix(0.999751,0,0,0.999751,0,0)">
		<path vector-effect="none" class="st0" d="M-0.2-0.2h842.4v595.8H-0.2V-0.2"/>
	</g>
	<g transform="matrix(11.8081,0,0,11.8081,0,0)">
	</g>
	<g transform="matrix(11.8081,0,0,11.8081,0,0)">
	</g>
	<g transform="matrix(11.8081,0,0,11.8081,59.0404,82.6566)">
	</g>
	<g transform="matrix(11.8081,0,0,11.8081,59.0404,82.6566)">
	</g>
	<g transform="matrix(11.8081,0,0,11.8081,59.0404,82.6566)">
		<path vector-effect="non-scaling-stroke" class="st0" d="M-3.8-5.3h69.1V42H-3.8V-5.3"/>
	</g>
	<g transform="matrix(11.8081,0,0,11.8081,59.0404,82.6566)">
	</g>
	<g transform="matrix(0.999751,0,0,0.999751,59.0404,82.6566)">
		<path vector-effect="non-scaling-stroke" class="st1" d="M-44.9-62.8h816.5v558.5H-44.9V-62.8"/>
	</g>
	<g transform="matrix(0.999751,0,0,0.999751,59.0404,82.6566)">
		
			<image style="overflow:visible;enable-background:new    ;" width="3402" height="2327" xlink:href="59C0DB2E87A2E088.png"  transform="matrix(0.24 0 0 0.24 -44.8813 -62.8347)">
		</image>
	</g>
	<g transform="matrix(0.999751,0,0,0.999751,59.0404,82.6566)">
		<path vector-effect="non-scaling-stroke" class="st2" d="M256.8,387.3c0,0.8-0.6,1.4-1.4,1.4c-0.8,0-1.4-0.6-1.4-1.4
			s0.6-1.4,1.4-1.4C256.1,385.9,256.8,386.5,256.8,387.3"/>
		<path vector-effect="non-scaling-stroke" class="st2" d="M260.6,382.2c0,0.8-0.6,1.4-1.4,1.4c-0.8,0-1.4-0.6-1.4-1.4
			c0-0.8,0.6-1.4,1.4-1.4C259.9,380.8,260.6,381.4,260.6,382.2"/>
		<path vector-effect="non-scaling-stroke" class="st2" d="M261.3,383.7c0,0.8-0.6,1.4-1.4,1.4c-0.8,0-1.4-0.6-1.4-1.4
			c0-0.8,0.6-1.4,1.4-1.4C260.6,382.3,261.3,382.9,261.3,383.7"/>
		<path vector-effect="non-scaling-stroke" class="st2" d="M252.5,385c0,0.8-0.6,1.4-1.4,1.4c-0.8,0-1.4-0.6-1.4-1.4
			c0-0.8,0.6-1.4,1.4-1.4C251.8,383.6,252.5,384.2,252.5,385"/>
		<path vector-effect="non-scaling-stroke" class="st2" d="M250.8,387.2c0,0.8-0.6,1.4-1.4,1.4c-0.8,0-1.4-0.6-1.4-1.4
			c0-0.8,0.6-1.4,1.4-1.4C250.2,385.8,250.8,386.4,250.8,387.2"/>
		<path vector-effect="non-scaling-stroke" class="st2" d="M253.9,388.9c0,0.8-0.6,1.4-1.4,1.4c-0.8,0-1.4-0.6-1.4-1.4
			s0.6-1.4,1.4-1.4C253.3,387.5,253.9,388.1,253.9,388.9"/>
		<path vector-effect="non-scaling-stroke" class="st2" d="M257.3,388.6c0,0.8-0.6,1.4-1.4,1.4c-0.8,0-1.4-0.6-1.4-1.4
			s0.6-1.4,1.4-1.4C256.6,387.2,257.3,387.8,257.3,388.6"/>
		<path vector-effect="non-scaling-stroke" class="st2" d="M216.9,339.1c0,0.8-0.6,1.4-1.4,1.4c-0.8,0-1.4-0.6-1.4-1.4
			c0-0.8,0.6-1.4,1.4-1.4C216.3,337.7,216.9,338.3,216.9,339.1"/>
		<path vector-effect="non-scaling-stroke" class="st2" d="M206.8,316.7c0,0.8-0.6,1.4-1.4,1.4c-0.8,0-1.4-0.6-1.4-1.4
			s0.6-1.4,1.4-1.4C206.1,315.3,206.8,315.9,206.8,316.7"/>
		<path vector-effect="non-scaling-stroke" class="st2" d="M250.8,387.2c0,0.8-0.6,1.4-1.4,1.4c-0.8,0-1.4-0.6-1.4-1.4
			c0-0.8,0.6-1.4,1.4-1.4C250.2,385.8,250.8,386.4,250.8,387.2"/>
		<path vector-effect="non-scaling-stroke" class="st2" d="M260.7,366.4c0,0.8-0.6,1.4-1.4,1.4c-0.8,0-1.4-0.6-1.4-1.4
			c0-0.8,0.6-1.4,1.4-1.4C260.1,364.9,260.7,365.6,260.7,366.4"/>
		<path vector-effect="non-scaling-stroke" class="st2" d="M250.8,387.2c0,0.8-0.6,1.4-1.4,1.4c-0.8,0-1.4-0.6-1.4-1.4
			c0-0.8,0.6-1.4,1.4-1.4C250.2,385.8,250.8,386.4,250.8,387.2"/>
		<path vector-effect="non-scaling-stroke" class="st2" d="M260.2,363.6c0,0.8-0.6,1.4-1.4,1.4c-0.8,0-1.4-0.6-1.4-1.4
			s0.6-1.4,1.4-1.4C259.6,362.2,260.2,362.9,260.2,363.6"/>
		<path vector-effect="non-scaling-stroke" class="st2" d="M191.9,341.4c0,0.8-0.6,1.4-1.4,1.4c-0.8,0-1.4-0.6-1.4-1.4
			s0.6-1.4,1.4-1.4C191.3,340,191.9,340.7,191.9,341.4"/>
		<path vector-effect="non-scaling-stroke" class="st2" d="M250.8,387.2c0,0.8-0.6,1.4-1.4,1.4c-0.8,0-1.4-0.6-1.4-1.4
			c0-0.8,0.6-1.4,1.4-1.4C250.2,385.8,250.8,386.4,250.8,387.2"/>
		<path vector-effect="non-scaling-stroke" class="st2" d="M273.3,371.1c0,0.8-0.6,1.4-1.4,1.4s-1.4-0.6-1.4-1.4
			c0-0.8,0.6-1.4,1.4-1.4S273.3,370.3,273.3,371.1"/>
		<path vector-effect="non-scaling-stroke" class="st2" d="M250.8,387.2c0,0.8-0.6,1.4-1.4,1.4c-0.8,0-1.4-0.6-1.4-1.4
			c0-0.8,0.6-1.4,1.4-1.4C250.2,385.8,250.8,386.4,250.8,387.2"/>
		<path vector-effect="non-scaling-stroke" class="st2" d="M273.3,371.1c0,0.8-0.6,1.4-1.4,1.4c-0.8,0-1.4-0.6-1.4-1.4
			s0.6-1.4,1.4-1.4C272.6,369.6,273.3,370.3,273.3,371.1"/>
		<path vector-effect="non-scaling-stroke" class="st2" d="M250.8,387.2c0,0.8-0.6,1.4-1.4,1.4c-0.8,0-1.4-0.6-1.4-1.4
			c0-0.8,0.6-1.4,1.4-1.4C250.2,385.8,250.8,386.4,250.8,387.2"/>
		<path vector-effect="non-scaling-stroke" class="st2" d="M237.3,296.8c0,0.8-0.6,1.4-1.4,1.4c-0.8,0-1.4-0.6-1.4-1.4
			c0-0.8,0.6-1.4,1.4-1.4C236.6,295.4,237.3,296,237.3,296.8"/>
		<path vector-effect="non-scaling-stroke" class="st2" d="M245.2,389.9c0,0.8-0.6,1.4-1.4,1.4c-0.8,0-1.4-0.6-1.4-1.4
			c0-0.8,0.6-1.4,1.4-1.4C244.6,388.5,245.2,389.1,245.2,389.9"/>
		<path vector-effect="non-scaling-stroke" class="st2" d="M250.8,387.2c0,0.8-0.6,1.4-1.4,1.4c-0.8,0-1.4-0.6-1.4-1.4
			c0-0.8,0.6-1.4,1.4-1.4C250.2,385.8,250.8,386.4,250.8,387.2"/>
		<path vector-effect="non-scaling-stroke" class="st2" d="M277.9,412.7c0,0.8-0.6,1.4-1.4,1.4c-0.8,0-1.4-0.6-1.4-1.4
			c0-0.8,0.6-1.4,1.4-1.4C277.2,411.3,277.9,411.9,277.9,412.7"/>
		<path vector-effect="non-scaling-stroke" class="st2" d="M317.6,428.5c0,0.8-0.6,1.4-1.4,1.4c-0.8,0-1.4-0.6-1.4-1.4
			c0-0.8,0.6-1.4,1.4-1.4C316.9,427.1,317.6,427.7,317.6,428.5"/>
		<path vector-effect="non-scaling-stroke" class="st2" d="M250.8,387.2c0,0.8-0.6,1.4-1.4,1.4c-0.8,0-1.4-0.6-1.4-1.4
			c0-0.8,0.6-1.4,1.4-1.4C250.2,385.8,250.8,386.4,250.8,387.2"/>
		<path vector-effect="non-scaling-stroke" class="st2" d="M273.3,371.1c0,0.8-0.6,1.4-1.4,1.4s-1.4-0.6-1.4-1.4
			c0-0.8,0.6-1.4,1.4-1.4S273.3,370.3,273.3,371.1"/>
		<path vector-effect="non-scaling-stroke" class="st2" d="M250.8,387.2c0,0.8-0.6,1.4-1.4,1.4c-0.8,0-1.4-0.6-1.4-1.4
			c0-0.8,0.6-1.4,1.4-1.4C250.2,385.8,250.8,386.4,250.8,387.2"/>
		<path vector-effect="non-scaling-stroke" class="st2" d="M250.8,387.2c0,0.8-0.6,1.4-1.4,1.4c-0.8,0-1.4-0.6-1.4-1.4
			c0-0.8,0.6-1.4,1.4-1.4C250.2,385.8,250.8,386.4,250.8,387.2"/>
		<path vector-effect="non-scaling-stroke" class="st2" d="M273.3,371c0,0.8-0.6,1.4-1.4,1.4s-1.4-0.6-1.4-1.4s0.6-1.4,1.4-1.4
			S273.3,370.3,273.3,371"/>
		<path vector-effect="non-scaling-stroke" class="st2" d="M273.3,371.1c0,0.8-0.6,1.4-1.4,1.4c-0.8,0-1.4-0.6-1.4-1.4
			c0-0.8,0.6-1.4,1.4-1.4C272.6,369.7,273.3,370.3,273.3,371.1"/>
		<path vector-effect="non-scaling-stroke" class="st2" d="M225.2,352.8c0,0.8-0.6,1.4-1.4,1.4c-0.8,0-1.4-0.6-1.4-1.4
			c0-0.8,0.6-1.4,1.4-1.4C224.6,351.4,225.2,352.1,225.2,352.8"/>
		<path vector-effect="non-scaling-stroke" class="st2" d="M250.8,387.2c0,0.8-0.6,1.4-1.4,1.4c-0.8,0-1.4-0.6-1.4-1.4
			c0-0.8,0.6-1.4,1.4-1.4C250.2,385.8,250.8,386.4,250.8,387.2"/>
		<path vector-effect="non-scaling-stroke" class="st2" d="M243.2,357.3c0,0.8-0.6,1.4-1.4,1.4c-0.8,0-1.4-0.6-1.4-1.4
			c0-0.8,0.6-1.4,1.4-1.4C242.5,355.9,243.2,356.5,243.2,357.3"/>
		<path vector-effect="non-scaling-stroke" class="st2" d="M273.3,371c0,0.8-0.6,1.4-1.4,1.4s-1.4-0.6-1.4-1.4
			c0-0.8,0.6-1.4,1.4-1.4S273.3,370.3,273.3,371"/>
		<path vector-effect="non-scaling-stroke" class="st2" d="M250.8,387.2c0,0.8-0.6,1.4-1.4,1.4c-0.8,0-1.4-0.6-1.4-1.4
			c0-0.8,0.6-1.4,1.4-1.4C250.2,385.8,250.8,386.4,250.8,387.2"/>
		<path vector-effect="non-scaling-stroke" class="st2" d="M250.8,387.2c0,0.8-0.6,1.4-1.4,1.4c-0.8,0-1.4-0.6-1.4-1.4
			c0-0.8,0.6-1.4,1.4-1.4C250.2,385.8,250.8,386.4,250.8,387.2"/>
		<path vector-effect="non-scaling-stroke" class="st2" d="M250.8,387.2c0,0.8-0.6,1.4-1.4,1.4c-0.8,0-1.4-0.6-1.4-1.4
			c0-0.8,0.6-1.4,1.4-1.4C250.2,385.8,250.8,386.4,250.8,387.2"/>
	</g>
	<g transform="matrix(0.999751,0,0,0.999751,59.0404,82.6566)" class="st3">
		
			<image style="overflow:visible;enable-background:new    ;" width="3402" height="2327" xlink:href="59C0DB2E87A2E08F.png"  transform="matrix(0.24 0 0 0.24 -44.8813 -62.8347)">
		</image>
	</g>
	<g transform="matrix(0.999751,0,0,0.999751,59.0404,82.6566)">
		<path vector-effect="non-scaling-stroke" class="st4" d="M253.9,389.5c0,0.8-0.6,1.4-1.4,1.4c-0.8,0-1.4-0.6-1.4-1.4
			s0.6-1.4,1.4-1.4C253.2,388.1,253.9,388.7,253.9,389.5"/>
		<path vector-effect="non-scaling-stroke" class="st4" d="M253.9,389.5c0,0.8-0.6,1.4-1.4,1.4c-0.8,0-1.4-0.6-1.4-1.4
			s0.6-1.4,1.4-1.4C253.2,388.1,253.9,388.7,253.9,389.5"/>
		<path vector-effect="non-scaling-stroke" class="st4" d="M253.9,389.5c0,0.8-0.6,1.4-1.4,1.4c-0.8,0-1.4-0.6-1.4-1.4
			s0.6-1.4,1.4-1.4C253.2,388.1,253.9,388.7,253.9,389.5"/>
		<path vector-effect="non-scaling-stroke" class="st4" d="M254,389.4c0,0.8-0.6,1.4-1.4,1.4c-0.8,0-1.4-0.6-1.4-1.4
			c0-0.8,0.6-1.4,1.4-1.4C253.4,387.9,254,388.6,254,389.4"/>
		<path vector-effect="non-scaling-stroke" class="st4" d="M253.9,388.9c0,0.8-0.6,1.4-1.4,1.4c-0.8,0-1.4-0.6-1.4-1.4
			s0.6-1.4,1.4-1.4C253.3,387.5,253.9,388.1,253.9,388.9"/>
		<path vector-effect="non-scaling-stroke" class="st4" d="M254.1,388.9c0,0.8-0.6,1.4-1.4,1.4c-0.8,0-1.4-0.6-1.4-1.4
			c0-0.8,0.6-1.4,1.4-1.4C253.5,387.5,254.1,388.1,254.1,388.9"/>
		<path vector-effect="non-scaling-stroke" class="st4" d="M250.8,387.9c0,0.8-0.6,1.4-1.4,1.4c-0.8,0-1.4-0.6-1.4-1.4
			s0.6-1.4,1.4-1.4C250.2,386.5,250.8,387.1,250.8,387.9"/>
		<path vector-effect="non-scaling-stroke" class="st4" d="M250.8,387.9c0,0.8-0.6,1.4-1.4,1.4c-0.8,0-1.4-0.6-1.4-1.4
			s0.6-1.4,1.4-1.4C250.2,386.5,250.8,387.1,250.8,387.9"/>
		<path vector-effect="non-scaling-stroke" class="st4" d="M250.8,387.9c0,0.8-0.6,1.4-1.4,1.4c-0.8,0-1.4-0.6-1.4-1.4
			s0.6-1.4,1.4-1.4C250.2,386.5,250.8,387.1,250.8,387.9"/>
		<path vector-effect="non-scaling-stroke" class="st4" d="M252.1,387.8c0,0.8-0.6,1.4-1.4,1.4c-0.8,0-1.4-0.6-1.4-1.4
			c0-0.8,0.6-1.4,1.4-1.4C251.5,386.4,252.1,387,252.1,387.8"/>
		<path vector-effect="non-scaling-stroke" class="st4" d="M254.1,387.5c0,0.8-0.6,1.4-1.4,1.4c-0.8,0-1.4-0.6-1.4-1.4
			s0.6-1.4,1.4-1.4C253.5,386,254.1,386.7,254.1,387.5"/>
		<path vector-effect="non-scaling-stroke" class="st4" d="M250.8,387.2c0,0.8-0.6,1.4-1.4,1.4c-0.8,0-1.4-0.6-1.4-1.4
			c0-0.8,0.6-1.4,1.4-1.4C250.2,385.8,250.8,386.4,250.8,387.2"/>
		<path vector-effect="non-scaling-stroke" class="st4" d="M250.8,387.2c0,0.8-0.6,1.4-1.4,1.4c-0.8,0-1.4-0.6-1.4-1.4
			c0-0.8,0.6-1.4,1.4-1.4C250.2,385.8,250.8,386.4,250.8,387.2"/>
		<path vector-effect="non-scaling-stroke" class="st4" d="M250.8,387.2c0,0.8-0.6,1.4-1.4,1.4c-0.8,0-1.4-0.6-1.4-1.4
			c0-0.8,0.6-1.4,1.4-1.4C250.2,385.8,250.8,386.4,250.8,387.2"/>
		<path vector-effect="non-scaling-stroke" class="st4" d="M250.8,387.2c0,0.8-0.6,1.4-1.4,1.4c-0.8,0-1.4-0.6-1.4-1.4
			c0-0.8,0.6-1.4,1.4-1.4C250.2,385.8,250.8,386.4,250.8,387.2"/>
		<path vector-effect="non-scaling-stroke" class="st4" d="M250.8,387.2c0,0.8-0.6,1.4-1.4,1.4c-0.8,0-1.4-0.6-1.4-1.4
			c0-0.8,0.6-1.4,1.4-1.4C250.2,385.8,250.8,386.4,250.8,387.2"/>
		<path vector-effect="non-scaling-stroke" class="st4" d="M250.8,387.2c0,0.8-0.6,1.4-1.4,1.4c-0.8,0-1.4-0.6-1.4-1.4
			c0-0.8,0.6-1.4,1.4-1.4C250.2,385.8,250.8,386.4,250.8,387.2"/>
		<path vector-effect="non-scaling-stroke" class="st4" d="M250.8,387.2c0,0.8-0.6,1.4-1.4,1.4c-0.8,0-1.4-0.6-1.4-1.4
			c0-0.8,0.6-1.4,1.4-1.4C250.2,385.8,250.8,386.4,250.8,387.2"/>
		<path vector-effect="non-scaling-stroke" class="st4" d="M250.8,387.2c0,0.8-0.6,1.4-1.4,1.4c-0.8,0-1.4-0.6-1.4-1.4
			c0-0.8,0.6-1.4,1.4-1.4C250.2,385.8,250.8,386.4,250.8,387.2"/>
		<path vector-effect="non-scaling-stroke" class="st4" d="M250.8,387.2c0,0.8-0.6,1.4-1.4,1.4c-0.8,0-1.4-0.6-1.4-1.4
			c0-0.8,0.6-1.4,1.4-1.4C250.2,385.8,250.8,386.4,250.8,387.2"/>
		<path vector-effect="non-scaling-stroke" class="st4" d="M250.8,387.2c0,0.8-0.6,1.4-1.4,1.4c-0.8,0-1.4-0.6-1.4-1.4
			c0-0.8,0.6-1.4,1.4-1.4C250.2,385.8,250.8,386.4,250.8,387.2"/>
		<path vector-effect="non-scaling-stroke" class="st4" d="M250.8,387.2c0,0.8-0.6,1.4-1.4,1.4c-0.8,0-1.4-0.6-1.4-1.4
			c0-0.8,0.6-1.4,1.4-1.4C250.2,385.8,250.8,386.4,250.8,387.2"/>
		<path vector-effect="non-scaling-stroke" class="st4" d="M250.8,387.2c0,0.8-0.6,1.4-1.4,1.4c-0.8,0-1.4-0.6-1.4-1.4
			c0-0.8,0.6-1.4,1.4-1.4C250.2,385.8,250.8,386.4,250.8,387.2"/>
		<path vector-effect="non-scaling-stroke" class="st4" d="M250.8,387.2c0,0.8-0.6,1.4-1.4,1.4c-0.8,0-1.4-0.6-1.4-1.4
			c0-0.8,0.6-1.4,1.4-1.4C250.2,385.8,250.8,386.4,250.8,387.2"/>
		<path vector-effect="non-scaling-stroke" class="st4" d="M250.9,387.1c0,0.8-0.6,1.4-1.4,1.4c-0.8,0-1.4-0.6-1.4-1.4
			s0.6-1.4,1.4-1.4C250.3,385.7,250.9,386.3,250.9,387.1"/>
		<path vector-effect="non-scaling-stroke" class="st4" d="M251.1,386.9c0,0.8-0.6,1.4-1.4,1.4c-0.8,0-1.4-0.6-1.4-1.4
			c0-0.8,0.6-1.4,1.4-1.4C250.4,385.5,251.1,386.1,251.1,386.9"/>
		<path vector-effect="non-scaling-stroke" class="st4" d="M251,386.8c0,0.8-0.6,1.4-1.4,1.4s-1.4-0.6-1.4-1.4
			c0-0.8,0.6-1.4,1.4-1.4S251,386.1,251,386.8"/>
		<path vector-effect="non-scaling-stroke" class="st4" d="M249.9,386.8c0,0.8-0.6,1.4-1.4,1.4c-0.8,0-1.4-0.6-1.4-1.4
			s0.6-1.4,1.4-1.4C249.3,385.4,249.9,386,249.9,386.8"/>
		<path vector-effect="non-scaling-stroke" class="st4" d="M249.9,386.8c0,0.8-0.6,1.4-1.4,1.4c-0.8,0-1.4-0.6-1.4-1.4
			s0.6-1.4,1.4-1.4C249.3,385.4,249.9,386,249.9,386.8"/>
		<path vector-effect="non-scaling-stroke" class="st4" d="M249.9,386.8c0,0.8-0.6,1.4-1.4,1.4c-0.8,0-1.4-0.6-1.4-1.4
			s0.6-1.4,1.4-1.4C249.3,385.4,249.9,386,249.9,386.8"/>
		<path vector-effect="non-scaling-stroke" class="st4" d="M251,386.5c0,0.8-0.6,1.4-1.4,1.4c-0.8,0-1.4-0.6-1.4-1.4
			c0-0.8,0.6-1.4,1.4-1.4C250.4,385.1,251,385.7,251,386.5"/>
		<path vector-effect="non-scaling-stroke" class="st4" d="M252.2,386.2c0,0.8-0.6,1.4-1.4,1.4c-0.8,0-1.4-0.6-1.4-1.4
			s0.6-1.4,1.4-1.4C251.6,384.7,252.2,385.4,252.2,386.2"/>
		<path vector-effect="non-scaling-stroke" class="st4" d="M252.3,386c0,0.8-0.6,1.4-1.4,1.4c-0.8,0-1.4-0.6-1.4-1.4
			s0.6-1.4,1.4-1.4C251.7,384.6,252.3,385.2,252.3,386"/>
		<path vector-effect="non-scaling-stroke" class="st4" d="M252.7,386c0,0.8-0.6,1.4-1.4,1.4c-0.8,0-1.4-0.6-1.4-1.4
			c0-0.8,0.6-1.4,1.4-1.4C252.1,384.6,252.7,385.2,252.7,386"/>
		<path vector-effect="non-scaling-stroke" class="st4" d="M252.7,386c0,0.8-0.6,1.4-1.4,1.4c-0.8,0-1.4-0.6-1.4-1.4
			c0-0.8,0.6-1.4,1.4-1.4C252.1,384.6,252.7,385.2,252.7,386"/>
		<path vector-effect="non-scaling-stroke" class="st4" d="M252.7,386c0,0.8-0.6,1.4-1.4,1.4c-0.8,0-1.4-0.6-1.4-1.4
			c0-0.8,0.6-1.4,1.4-1.4C252.1,384.6,252.7,385.2,252.7,386"/>
		<path vector-effect="non-scaling-stroke" class="st4" d="M252.7,386c0,0.8-0.6,1.4-1.4,1.4c-0.8,0-1.4-0.6-1.4-1.4
			c0-0.8,0.6-1.4,1.4-1.4C252.1,384.6,252.7,385.2,252.7,386"/>
		<path vector-effect="non-scaling-stroke" class="st4" d="M252.7,386c0,0.8-0.6,1.4-1.4,1.4c-0.8,0-1.4-0.6-1.4-1.4
			c0-0.8,0.6-1.4,1.4-1.4C252.1,384.6,252.7,385.2,252.7,386"/>
		<path vector-effect="non-scaling-stroke" class="st4" d="M252.7,386c0,0.8-0.6,1.4-1.4,1.4c-0.8,0-1.4-0.6-1.4-1.4
			c0-0.8,0.6-1.4,1.4-1.4C252.1,384.6,252.7,385.2,252.7,386"/>
		<path vector-effect="non-scaling-stroke" class="st4" d="M252.7,386c0,0.8-0.6,1.4-1.4,1.4c-0.8,0-1.4-0.6-1.4-1.4
			c0-0.8,0.6-1.4,1.4-1.4C252.1,384.6,252.7,385.2,252.7,386"/>
		<path vector-effect="non-scaling-stroke" class="st4" d="M252.7,386c0,0.8-0.6,1.4-1.4,1.4c-0.8,0-1.4-0.6-1.4-1.4
			c0-0.8,0.6-1.4,1.4-1.4C252.1,384.6,252.7,385.2,252.7,386"/>
		<path vector-effect="non-scaling-stroke" class="st4" d="M252.5,385.8c0,0.8-0.6,1.4-1.4,1.4c-0.8,0-1.4-0.6-1.4-1.4
			c0-0.8,0.6-1.4,1.4-1.4C251.9,384.4,252.5,385,252.5,385.8"/>
		<path vector-effect="non-scaling-stroke" class="st4" d="M261.1,385c0,0.8-0.6,1.4-1.4,1.4s-1.4-0.6-1.4-1.4s0.6-1.4,1.4-1.4
			S261.1,384.2,261.1,385"/>
		<path vector-effect="non-scaling-stroke" class="st4" d="M261.1,385c0,0.8-0.6,1.4-1.4,1.4s-1.4-0.6-1.4-1.4s0.6-1.4,1.4-1.4
			S261.1,384.2,261.1,385"/>
		<path vector-effect="non-scaling-stroke" class="st4" d="M254.5,382.8c0,0.8-0.6,1.4-1.4,1.4s-1.4-0.6-1.4-1.4
			c0-0.8,0.6-1.4,1.4-1.4S254.5,382,254.5,382.8"/>
		<path vector-effect="non-scaling-stroke" class="st4" d="M254.5,382.8c0,0.8-0.6,1.4-1.4,1.4s-1.4-0.6-1.4-1.4
			c0-0.8,0.6-1.4,1.4-1.4S254.5,382,254.5,382.8"/>
		<path vector-effect="non-scaling-stroke" class="st4" d="M253.5,382.2c0,0.8-0.6,1.4-1.4,1.4s-1.4-0.6-1.4-1.4s0.6-1.4,1.4-1.4
			S253.5,381.4,253.5,382.2"/>
		<path vector-effect="non-scaling-stroke" class="st4" d="M273.3,371.1c0,0.8-0.6,1.4-1.4,1.4c-0.8,0-1.4-0.6-1.4-1.4
			c0-0.8,0.6-1.4,1.4-1.4C272.6,369.7,273.3,370.3,273.3,371.1"/>
		<path vector-effect="non-scaling-stroke" class="st4" d="M273.3,371.1c0,0.8-0.6,1.4-1.4,1.4c-0.8,0-1.4-0.6-1.4-1.4
			c0-0.8,0.6-1.4,1.4-1.4C272.6,369.7,273.3,370.3,273.3,371.1"/>
		<path vector-effect="non-scaling-stroke" class="st4" d="M273.3,371.1c0,0.8-0.6,1.4-1.4,1.4c-0.8,0-1.4-0.6-1.4-1.4
			c0-0.8,0.6-1.4,1.4-1.4C272.6,369.7,273.3,370.3,273.3,371.1"/>
		<path vector-effect="non-scaling-stroke" class="st4" d="M273.3,371.1c0,0.8-0.6,1.4-1.4,1.4c-0.8,0-1.4-0.6-1.4-1.4
			c0-0.8,0.6-1.4,1.4-1.4C272.6,369.7,273.3,370.3,273.3,371.1"/>
		<path vector-effect="non-scaling-stroke" class="st4" d="M273.3,371.1c0,0.8-0.6,1.4-1.4,1.4c-0.8,0-1.4-0.6-1.4-1.4
			s0.6-1.4,1.4-1.4C272.6,369.6,273.3,370.3,273.3,371.1"/>
		<path vector-effect="non-scaling-stroke" class="st4" d="M273.3,371.1c0,0.8-0.6,1.4-1.4,1.4s-1.4-0.6-1.4-1.4
			c0-0.8,0.6-1.4,1.4-1.4S273.3,370.3,273.3,371.1"/>
		<path vector-effect="non-scaling-stroke" class="st4" d="M273.3,371.1c0,0.8-0.6,1.4-1.4,1.4s-1.4-0.6-1.4-1.4
			c0-0.8,0.6-1.4,1.4-1.4S273.3,370.3,273.3,371.1"/>
		<path vector-effect="non-scaling-stroke" class="st4" d="M273.3,371c0,0.8-0.6,1.4-1.4,1.4s-1.4-0.6-1.4-1.4
			c0-0.8,0.6-1.4,1.4-1.4S273.3,370.3,273.3,371"/>
		<path vector-effect="non-scaling-stroke" class="st4" d="M273.3,371c0,0.8-0.6,1.4-1.4,1.4s-1.4-0.6-1.4-1.4
			c0-0.8,0.6-1.4,1.4-1.4S273.3,370.3,273.3,371"/>
		<path vector-effect="non-scaling-stroke" class="st4" d="M225.2,352.8c0,0.8-0.6,1.4-1.4,1.4c-0.8,0-1.4-0.6-1.4-1.4
			c0-0.8,0.6-1.4,1.4-1.4C224.6,351.4,225.2,352.1,225.2,352.8"/>
		<path vector-effect="non-scaling-stroke" class="st4" d="M191.9,341.4c0,0.8-0.6,1.4-1.4,1.4c-0.8,0-1.4-0.6-1.4-1.4
			s0.6-1.4,1.4-1.4C191.3,340,191.9,340.7,191.9,341.4"/>
		<path vector-effect="non-scaling-stroke" class="st4" d="M191.9,341.4c0,0.8-0.6,1.4-1.4,1.4c-0.8,0-1.4-0.6-1.4-1.4
			s0.6-1.4,1.4-1.4C191.3,340,191.9,340.7,191.9,341.4"/>
		<path vector-effect="non-scaling-stroke" class="st4" d="M200.4,341.4c0,0.8-0.6,1.4-1.4,1.4c-0.8,0-1.4-0.6-1.4-1.4
			s0.6-1.4,1.4-1.4C199.8,340,200.4,340.7,200.4,341.4"/>
		<path vector-effect="non-scaling-stroke" class="st4" d="M205.6,341.4c0,0.8-0.6,1.4-1.4,1.4c-0.8,0-1.4-0.6-1.4-1.4
			s0.6-1.4,1.4-1.4C205,340,205.6,340.7,205.6,341.4"/>
		<path vector-effect="non-scaling-stroke" class="st4" d="M211.1,293.5c0,0.8-0.6,1.4-1.4,1.4c-0.8,0-1.4-0.6-1.4-1.4
			s0.6-1.4,1.4-1.4C210.5,292.1,211.1,292.7,211.1,293.5"/>
		<path vector-effect="non-scaling-stroke" class="st4" d="M500,50.6c0,0.8-0.6,1.4-1.4,1.4c-0.8,0-1.4-0.6-1.4-1.4
			c0-0.8,0.6-1.4,1.4-1.4C499.4,49.2,500,49.8,500,50.6"/>
	</g>
	<g transform="matrix(0.999751,0,0,0.999751,59.0404,82.6566)">
		<path vector-effect="non-scaling-stroke" class="st5" d="M211.1,320.8c0,0.8-0.6,1.4-1.4,1.4c-0.8,0-1.4-0.6-1.4-1.4
			s0.6-1.4,1.4-1.4C210.4,319.4,211.1,320,211.1,320.8"/>
		<path vector-effect="non-scaling-stroke" class="st5" d="M243.2,357.3c0,0.8-0.6,1.4-1.4,1.4c-0.8,0-1.4-0.6-1.4-1.4
			c0-0.8,0.6-1.4,1.4-1.4C242.5,355.9,243.2,356.5,243.2,357.3"/>
		<path vector-effect="non-scaling-stroke" class="st5" d="M222,353c0,0.8-0.6,1.4-1.4,1.4c-0.8,0-1.4-0.6-1.4-1.4
			c0-0.8,0.6-1.4,1.4-1.4C221.4,351.6,222,352.2,222,353"/>
		<path vector-effect="non-scaling-stroke" class="st5" d="M219.3,351.2c0,0.8-0.6,1.4-1.4,1.4c-0.8,0-1.4-0.6-1.4-1.4
			s0.6-1.4,1.4-1.4C218.7,349.7,219.3,350.4,219.3,351.2"/>
		<path vector-effect="non-scaling-stroke" class="st5" d="M218,341.5c0,0.8-0.6,1.4-1.4,1.4c-0.8,0-1.4-0.6-1.4-1.4
			c0-0.8,0.6-1.4,1.4-1.4C217.4,340.1,218,340.7,218,341.5"/>
		<path vector-effect="non-scaling-stroke" class="st5" d="M211.2,331.9c0,0.8-0.6,1.4-1.4,1.4c-0.8,0-1.4-0.6-1.4-1.4
			c0-0.8,0.6-1.4,1.4-1.4C210.6,330.5,211.2,331.2,211.2,331.9"/>
		<path vector-effect="non-scaling-stroke" class="st5" d="M211.1,320.8c0,0.8-0.6,1.4-1.4,1.4c-0.8,0-1.4-0.6-1.4-1.4
			s0.6-1.4,1.4-1.4C210.4,319.4,211.1,320,211.1,320.8"/>
		<path vector-effect="non-scaling-stroke" class="st5" d="M204.7,311.6c0,0.8-0.6,1.4-1.4,1.4c-0.8,0-1.4-0.6-1.4-1.4
			c0-0.8,0.6-1.4,1.4-1.4C204.1,310.2,204.7,310.8,204.7,311.6"/>
		<path vector-effect="non-scaling-stroke" class="st5" d="M261.1,385c0,0.8-0.6,1.4-1.4,1.4s-1.4-0.6-1.4-1.4s0.6-1.4,1.4-1.4
			S261.1,384.2,261.1,385"/>
		<path vector-effect="non-scaling-stroke" class="st5" d="M250.8,387.2c0,0.8-0.6,1.4-1.4,1.4c-0.8,0-1.4-0.6-1.4-1.4
			c0-0.8,0.6-1.4,1.4-1.4C250.2,385.8,250.8,386.4,250.8,387.2"/>
		<path vector-effect="non-scaling-stroke" class="st5" d="M211.1,320.8c0,0.8-0.6,1.4-1.4,1.4c-0.8,0-1.4-0.6-1.4-1.4
			s0.6-1.4,1.4-1.4C210.4,319.4,211.1,320,211.1,320.8"/>
		<path vector-effect="non-scaling-stroke" class="st5" d="M210,317.4c0,0.8-0.6,1.4-1.4,1.4c-0.8,0-1.4-0.6-1.4-1.4
			c0-0.8,0.6-1.4,1.4-1.4C209.4,316,210,316.6,210,317.4"/>
		<path vector-effect="non-scaling-stroke" class="st5" d="M250.8,387.2c0,0.8-0.6,1.4-1.4,1.4c-0.8,0-1.4-0.6-1.4-1.4
			c0-0.8,0.6-1.4,1.4-1.4C250.2,385.8,250.8,386.4,250.8,387.2"/>
		<path vector-effect="non-scaling-stroke" class="st5" d="M251,387.1c0,0.8-0.6,1.4-1.4,1.4c-0.8,0-1.4-0.6-1.4-1.4
			s0.6-1.4,1.4-1.4C250.3,385.7,251,386.3,251,387.1"/>
		<path vector-effect="non-scaling-stroke" class="st5" d="M273.3,371.1c0,0.8-0.6,1.4-1.4,1.4c-0.8,0-1.4-0.6-1.4-1.4
			c0-0.8,0.6-1.4,1.4-1.4C272.6,369.7,273.3,370.3,273.3,371.1"/>
		<path vector-effect="non-scaling-stroke" class="st5" d="M277.9,412.7c0,0.8-0.6,1.4-1.4,1.4c-0.8,0-1.4-0.6-1.4-1.4
			c0-0.8,0.6-1.4,1.4-1.4C277.2,411.3,277.9,411.9,277.9,412.7"/>
		<path vector-effect="non-scaling-stroke" class="st5" d="M325.7,434.5c0,0.8-0.6,1.4-1.4,1.4s-1.4-0.6-1.4-1.4s0.6-1.4,1.4-1.4
			S325.7,433.7,325.7,434.5"/>
		<path vector-effect="non-scaling-stroke" class="st5" d="M273.3,371.1c0,0.8-0.6,1.4-1.4,1.4s-1.4-0.6-1.4-1.4
			c0-0.8,0.6-1.4,1.4-1.4S273.3,370.3,273.3,371.1"/>
		<path vector-effect="non-scaling-stroke" class="st5" d="M256.4,382.6c0,0.8-0.6,1.4-1.4,1.4c-0.8,0-1.4-0.6-1.4-1.4
			s0.6-1.4,1.4-1.4C255.7,381.2,256.4,381.8,256.4,382.6"/>
		<path vector-effect="non-scaling-stroke" class="st5" d="M250.8,387.9c0,0.8-0.6,1.4-1.4,1.4c-0.8,0-1.4-0.6-1.4-1.4
			s0.6-1.4,1.4-1.4C250.2,386.5,250.8,387.1,250.8,387.9"/>
		<path vector-effect="non-scaling-stroke" class="st5" d="M225.2,352.8c0,0.8-0.6,1.4-1.4,1.4c-0.8,0-1.4-0.6-1.4-1.4
			c0-0.8,0.6-1.4,1.4-1.4C224.6,351.4,225.2,352.1,225.2,352.8"/>
		<path vector-effect="non-scaling-stroke" class="st5" d="M234.7,370.5c0,0.8-0.6,1.4-1.4,1.4s-1.4-0.6-1.4-1.4s0.6-1.4,1.4-1.4
			S234.7,369.7,234.7,370.5"/>
		<path vector-effect="non-scaling-stroke" class="st5" d="M210.1,317.4c0,0.8-0.6,1.4-1.4,1.4s-1.4-0.6-1.4-1.4
			c0-0.8,0.6-1.4,1.4-1.4S210.1,316.6,210.1,317.4"/>
		<path vector-effect="non-scaling-stroke" class="st5" d="M250.8,387.2c0,0.8-0.6,1.4-1.4,1.4c-0.8,0-1.4-0.6-1.4-1.4
			c0-0.8,0.6-1.4,1.4-1.4C250.2,385.8,250.8,386.4,250.8,387.2"/>
		<path vector-effect="non-scaling-stroke" class="st5" d="M250.8,387.2c0,0.8-0.6,1.4-1.4,1.4c-0.8,0-1.4-0.6-1.4-1.4
			c0-0.8,0.6-1.4,1.4-1.4C250.2,385.8,250.8,386.4,250.8,387.2"/>
		<path vector-effect="non-scaling-stroke" class="st5" d="M234.7,370.5c0,0.8-0.6,1.4-1.4,1.4s-1.4-0.6-1.4-1.4s0.6-1.4,1.4-1.4
			S234.7,369.7,234.7,370.5"/>
		<path vector-effect="non-scaling-stroke" class="st5" d="M250.8,387.2c0,0.8-0.6,1.4-1.4,1.4c-0.8,0-1.4-0.6-1.4-1.4
			c0-0.8,0.6-1.4,1.4-1.4C250.2,385.8,250.8,386.4,250.8,387.2"/>
		<path vector-effect="non-scaling-stroke" class="st5" d="M225.2,352.8c0,0.8-0.6,1.4-1.4,1.4c-0.8,0-1.4-0.6-1.4-1.4
			c0-0.8,0.6-1.4,1.4-1.4C224.6,351.4,225.2,352.1,225.2,352.8"/>
		<path vector-effect="non-scaling-stroke" class="st5" d="M250.8,387.2c0,0.8-0.6,1.4-1.4,1.4c-0.8,0-1.4-0.6-1.4-1.4
			c0-0.8,0.6-1.4,1.4-1.4C250.2,385.8,250.8,386.4,250.8,387.2"/>
		<path vector-effect="non-scaling-stroke" class="st5" d="M250.8,387.2c0,0.8-0.6,1.4-1.4,1.4c-0.8,0-1.4-0.6-1.4-1.4
			c0-0.8,0.6-1.4,1.4-1.4C250.2,385.8,250.8,386.4,250.8,387.2"/>
		<path vector-effect="non-scaling-stroke" class="st5" d="M250.8,387.2c0,0.8-0.6,1.4-1.4,1.4c-0.8,0-1.4-0.6-1.4-1.4
			c0-0.8,0.6-1.4,1.4-1.4C250.2,385.8,250.8,386.4,250.8,387.2"/>
		<path vector-effect="non-scaling-stroke" class="st5" d="M250.8,387.2c0,0.8-0.6,1.4-1.4,1.4c-0.8,0-1.4-0.6-1.4-1.4
			c0-0.8,0.6-1.4,1.4-1.4C250.2,385.8,250.8,386.4,250.8,387.2"/>
		<path vector-effect="non-scaling-stroke" class="st5" d="M234.7,370.5c0,0.8-0.6,1.4-1.4,1.4s-1.4-0.6-1.4-1.4s0.6-1.4,1.4-1.4
			S234.7,369.7,234.7,370.5"/>
		<path vector-effect="non-scaling-stroke" class="st5" d="M245.5,346.9c0,0.8-0.6,1.4-1.4,1.4c-0.8,0-1.4-0.6-1.4-1.4
			s0.6-1.4,1.4-1.4C244.9,345.5,245.5,346.1,245.5,346.9"/>
		<path vector-effect="non-scaling-stroke" class="st5" d="M250.8,387.2c0,0.8-0.6,1.4-1.4,1.4c-0.8,0-1.4-0.6-1.4-1.4
			c0-0.8,0.6-1.4,1.4-1.4C250.2,385.8,250.8,386.4,250.8,387.2"/>
		<path vector-effect="non-scaling-stroke" class="st5" d="M225.2,352.8c0,0.8-0.6,1.4-1.4,1.4c-0.8,0-1.4-0.6-1.4-1.4
			c0-0.8,0.6-1.4,1.4-1.4C224.6,351.4,225.2,352.1,225.2,352.8"/>
	</g>
	<g transform="matrix(0.999751,0,0,0.999751,59.0404,82.6566)">
		<path vector-effect="none" class="st6" d="M271.9,371.1l-20.4,14.2l-0.4,0.5"/>
		<path vector-effect="none" class="st6" d="M248.5,386.8l7.7-14.5l0,0"/>
		<path vector-effect="none" class="st6" d="M257.1,371.4l2.2-5.1l-0.9-3.3l-54.8-22.7l24.4,17.2l-4.2,8.8l9.6,4.2"/>
		<path vector-effect="none" class="st6" d="M252,388.8l-2.7-1.6l2.8,1.9l-0.1-0.1l0.6-0.2l-0.2,0.1l0.2,0l6.1-25.3l-5.9-6.9
			l-8.8-9.8l-1.8,3.1l-13.3,5.4l-4.1-2.2l0,0.1l-1.3-0.3l-0.3,0l-0.4-0.2l-0.1,0l1,0l-3.2,0.2l-2.7-1.9l12-9.7l-9.9,9.9l-3-8.4
			l-5.6-11.9l0,0l-1.7-10.3l-0.1,0l0.2,0.1l-0.2,0.2l0.8-3.1l0.9-0.2l-2.1-0.1l-0.6-0.3l2.3-23.7"/>
	</g>
	<g transform="matrix(0.999751,0,0,0.999751,59.0404,82.6566)">
		<path vector-effect="non-scaling-stroke" class="st7" d="M273.3,371.1c0,0.8-0.6,1.4-1.4,1.4s-1.4-0.6-1.4-1.4
			c0-0.8,0.6-1.4,1.4-1.4S273.3,370.3,273.3,371.1"/>
		<path vector-effect="non-scaling-stroke" class="st7" d="M252.9,385.2c0,0.8-0.6,1.4-1.4,1.4c-0.8,0-1.4-0.6-1.4-1.4
			c0-0.8,0.6-1.4,1.4-1.4C252.3,383.8,252.9,384.5,252.9,385.2"/>
		<path vector-effect="non-scaling-stroke" class="st7" d="M252.5,385.8c0,0.8-0.6,1.4-1.4,1.4c-0.8,0-1.4-0.6-1.4-1.4
			c0-0.8,0.6-1.4,1.4-1.4C251.9,384.4,252.5,385,252.5,385.8"/>
		<path vector-effect="non-scaling-stroke" class="st7" d="M249.9,386.8c0,0.8-0.6,1.4-1.4,1.4c-0.8,0-1.4-0.6-1.4-1.4
			s0.6-1.4,1.4-1.4C249.3,385.4,249.9,386,249.9,386.8"/>
		<path vector-effect="non-scaling-stroke" class="st7" d="M250.9,387.2c0,0.8-0.6,1.4-1.4,1.4c-0.8,0-1.4-0.6-1.4-1.4
			c0-0.8,0.6-1.4,1.4-1.4C250.3,385.8,250.9,386.4,250.9,387.2"/>
		<path vector-effect="non-scaling-stroke" class="st7" d="M253.5,388.8c0,0.8-0.6,1.4-1.4,1.4c-0.8,0-1.4-0.6-1.4-1.4
			c0-0.8,0.6-1.4,1.4-1.4C252.8,387.4,253.5,388,253.5,388.8"/>
		<path vector-effect="non-scaling-stroke" class="st7" d="M253.6,389.1c0,0.8-0.6,1.4-1.4,1.4c-0.8,0-1.4-0.6-1.4-1.4
			s0.6-1.4,1.4-1.4C253,387.7,253.6,388.3,253.6,389.1"/>
		<path vector-effect="non-scaling-stroke" class="st7" d="M250.8,387.2c0,0.8-0.6,1.4-1.4,1.4c-0.8,0-1.4-0.6-1.4-1.4
			c0-0.8,0.6-1.4,1.4-1.4C250.2,385.8,250.8,386.4,250.8,387.2"/>
		<path vector-effect="non-scaling-stroke" class="st7" d="M253.5,389c0,0.8-0.6,1.4-1.4,1.4c-0.8,0-1.4-0.6-1.4-1.4
			c0-0.8,0.6-1.4,1.4-1.4C252.9,387.6,253.5,388.2,253.5,389"/>
		<path vector-effect="non-scaling-stroke" class="st7" d="M254.1,388.8c0,0.8-0.6,1.4-1.4,1.4c-0.8,0-1.4-0.6-1.4-1.4
			s0.6-1.4,1.4-1.4C253.5,387.4,254.1,388,254.1,388.8"/>
		<path vector-effect="non-scaling-stroke" class="st7" d="M253.9,388.9c0,0.8-0.6,1.4-1.4,1.4c-0.8,0-1.4-0.6-1.4-1.4
			s0.6-1.4,1.4-1.4C253.3,387.5,253.9,388.1,253.9,388.9"/>
		<path vector-effect="non-scaling-stroke" class="st7" d="M254.1,388.9c0,0.8-0.6,1.4-1.4,1.4c-0.8,0-1.4-0.6-1.4-1.4
			s0.6-1.4,1.4-1.4C253.4,387.5,254.1,388.1,254.1,388.9"/>
		<path vector-effect="non-scaling-stroke" class="st7" d="M257.7,372.3c0,0.8-0.6,1.4-1.4,1.4c-0.8,0-1.4-0.6-1.4-1.4
			c0-0.8,0.6-1.4,1.4-1.4C257,370.9,257.7,371.5,257.7,372.3"/>
		<path vector-effect="non-scaling-stroke" class="st7" d="M257.7,372.3c0,0.8-0.6,1.4-1.4,1.4c-0.8,0-1.4-0.6-1.4-1.4
			c0-0.8,0.6-1.4,1.4-1.4C257,370.9,257.7,371.5,257.7,372.3"/>
		<path vector-effect="non-scaling-stroke" class="st7" d="M258.5,371.4c0,0.8-0.6,1.4-1.4,1.4s-1.4-0.6-1.4-1.4s0.6-1.4,1.4-1.4
			S258.5,370.7,258.5,371.4"/>
		<path vector-effect="non-scaling-stroke" class="st7" d="M259.8,363c0,0.8-0.6,1.4-1.4,1.4s-1.4-0.6-1.4-1.4
			c0-0.8,0.6-1.4,1.4-1.4S259.8,362.2,259.8,363"/>
		<path vector-effect="non-scaling-stroke" class="st7" d="M260.7,366.4c0,0.8-0.6,1.4-1.4,1.4c-0.8,0-1.4-0.6-1.4-1.4
			c0-0.8,0.6-1.4,1.4-1.4C260.1,364.9,260.7,365.6,260.7,366.4"/>
		<path vector-effect="non-scaling-stroke" class="st7" d="M260.2,363.6c0,0.8-0.6,1.4-1.4,1.4c-0.8,0-1.4-0.6-1.4-1.4
			s0.6-1.4,1.4-1.4C259.6,362.2,260.2,362.9,260.2,363.6"/>
		<path vector-effect="non-scaling-stroke" class="st7" d="M224.7,353c0,0.8-0.6,1.4-1.4,1.4c-0.8,0-1.4-0.6-1.4-1.4
			c0-0.8,0.6-1.4,1.4-1.4C224.1,351.6,224.7,352.2,224.7,353"/>
		<path vector-effect="non-scaling-stroke" class="st7" d="M224.9,353c0,0.8-0.6,1.4-1.4,1.4c-0.8,0-1.4-0.6-1.4-1.4
			c0-0.8,0.6-1.4,1.4-1.4C224.3,351.5,224.9,352.2,224.9,353"/>
		<path vector-effect="non-scaling-stroke" class="st7" d="M224.3,352.8c0,0.8-0.6,1.4-1.4,1.4s-1.4-0.6-1.4-1.4
			c0-0.8,0.6-1.4,1.4-1.4S224.3,352,224.3,352.8"/>
		<path vector-effect="non-scaling-stroke" class="st7" d="M224.2,352.8c0,0.8-0.6,1.4-1.4,1.4c-0.8,0-1.4-0.6-1.4-1.4
			c0-0.8,0.6-1.4,1.4-1.4C223.6,351.4,224.2,352,224.2,352.8"/>
		<path vector-effect="non-scaling-stroke" class="st7" d="M225.2,352.8c0,0.8-0.6,1.4-1.4,1.4c-0.8,0-1.4-0.6-1.4-1.4
			c0-0.8,0.6-1.4,1.4-1.4C224.6,351.4,225.2,352.1,225.2,352.8"/>
		<path vector-effect="non-scaling-stroke" class="st7" d="M226.2,353.3c0,0.8-0.6,1.4-1.4,1.4c-0.8,0-1.4-0.6-1.4-1.4
			c0-0.8,0.6-1.4,1.4-1.4C225.6,351.9,226.2,352.5,226.2,353.3"/>
		<path vector-effect="non-scaling-stroke" class="st7" d="M226.2,353.2c0,0.8-0.6,1.4-1.4,1.4c-0.8,0-1.4-0.6-1.4-1.4
			c0-0.8,0.6-1.4,1.4-1.4C225.6,351.7,226.2,352.4,226.2,353.2"/>
		<path vector-effect="non-scaling-stroke" class="st7" d="M230.4,355.4c0,0.8-0.6,1.4-1.4,1.4c-0.8,0-1.4-0.6-1.4-1.4
			c0-0.8,0.6-1.4,1.4-1.4C229.7,354,230.4,354.6,230.4,355.4"/>
		<path vector-effect="non-scaling-stroke" class="st7" d="M243.7,350c0,0.8-0.6,1.4-1.4,1.4c-0.8,0-1.4-0.6-1.4-1.4
			s0.6-1.4,1.4-1.4C243.1,348.5,243.7,349.2,243.7,350"/>
		<path vector-effect="non-scaling-stroke" class="st7" d="M245.5,346.9c0,0.8-0.6,1.4-1.4,1.4c-0.8,0-1.4-0.6-1.4-1.4
			s0.6-1.4,1.4-1.4C244.9,345.5,245.5,346.1,245.5,346.9"/>
		<path vector-effect="non-scaling-stroke" class="st7" d="M254.3,356.7c0,0.8-0.6,1.4-1.4,1.4c-0.8,0-1.4-0.6-1.4-1.4
			c0-0.8,0.6-1.4,1.4-1.4C253.7,355.3,254.3,355.9,254.3,356.7"/>
		<path vector-effect="non-scaling-stroke" class="st7" d="M222,353c0,0.8-0.6,1.4-1.4,1.4c-0.8,0-1.4-0.6-1.4-1.4
			c0-0.8,0.6-1.4,1.4-1.4C221.4,351.6,222,352.2,222,353"/>
		<path vector-effect="non-scaling-stroke" class="st7" d="M219.3,351.2c0,0.8-0.6,1.4-1.4,1.4c-0.8,0-1.4-0.6-1.4-1.4
			s0.6-1.4,1.4-1.4C218.7,349.7,219.3,350.4,219.3,351.2"/>
		<path vector-effect="non-scaling-stroke" class="st7" d="M221.4,351.4c0,0.8-0.6,1.4-1.4,1.4c-0.8,0-1.4-0.6-1.4-1.4
			c0-0.8,0.6-1.4,1.4-1.4C220.7,350,221.4,350.6,221.4,351.4"/>
		<path vector-effect="non-scaling-stroke" class="st7" d="M218.4,343c0,0.8-0.6,1.4-1.4,1.4c-0.8,0-1.4-0.6-1.4-1.4
			c0-0.8,0.6-1.4,1.4-1.4C217.7,341.6,218.4,342.2,218.4,343"/>
		<path vector-effect="non-scaling-stroke" class="st7" d="M212.7,331.1c0,0.8-0.6,1.4-1.4,1.4c-0.8,0-1.4-0.6-1.4-1.4
			c0-0.8,0.6-1.4,1.4-1.4C212.1,329.7,212.7,330.3,212.7,331.1"/>
		<path vector-effect="non-scaling-stroke" class="st7" d="M212.7,331.1c0,0.8-0.6,1.4-1.4,1.4c-0.8,0-1.4-0.6-1.4-1.4
			c0-0.8,0.6-1.4,1.4-1.4C212.1,329.7,212.7,330.3,212.7,331.1"/>
		<path vector-effect="non-scaling-stroke" class="st7" d="M231.3,341.5c0,0.8-0.6,1.4-1.4,1.4c-0.8,0-1.4-0.6-1.4-1.4
			c0-0.8,0.6-1.4,1.4-1.4C230.6,340.1,231.3,340.7,231.3,341.5"/>
		<path vector-effect="non-scaling-stroke" class="st7" d="M211.2,320.9c0,0.8-0.6,1.4-1.4,1.4c-0.8,0-1.4-0.6-1.4-1.4
			c0-0.8,0.6-1.4,1.4-1.4C210.6,319.5,211.2,320.1,211.2,320.9"/>
		<path vector-effect="non-scaling-stroke" class="st7" d="M211.1,320.8c0,0.8-0.6,1.4-1.4,1.4c-0.8,0-1.4-0.6-1.4-1.4
			s0.6-1.4,1.4-1.4C210.4,319.4,211.1,320,211.1,320.8"/>
		<path vector-effect="non-scaling-stroke" class="st7" d="M211,321.1c0,0.8-0.6,1.4-1.4,1.4c-0.8,0-1.4-0.6-1.4-1.4
			c0-0.8,0.6-1.4,1.4-1.4C210.4,319.6,211,320.3,211,321.1"/>
		<path vector-effect="non-scaling-stroke" class="st7" d="M211,320.8c0,0.8-0.6,1.4-1.4,1.4c-0.8,0-1.4-0.6-1.4-1.4
			c0-0.8,0.6-1.4,1.4-1.4C210.4,319.3,211,320,211,320.8"/>
		<path vector-effect="non-scaling-stroke" class="st7" d="M212.7,317.8c0,0.8-0.6,1.4-1.4,1.4c-0.8,0-1.4-0.6-1.4-1.4
			c0-0.8,0.6-1.4,1.4-1.4C212.1,316.4,212.7,317.1,212.7,317.8"/>
		<path vector-effect="non-scaling-stroke" class="st7" d="M211.8,318c0,0.8-0.6,1.4-1.4,1.4c-0.8,0-1.4-0.6-1.4-1.4
			c0-0.8,0.6-1.4,1.4-1.4C211.2,316.6,211.8,317.2,211.8,318"/>
		<path vector-effect="non-scaling-stroke" class="st7" d="M210.7,317.7c0,0.8-0.6,1.4-1.4,1.4c-0.8,0-1.4-0.6-1.4-1.4
			s0.6-1.4,1.4-1.4C210,316.3,210.7,316.9,210.7,317.7"/>
		<path vector-effect="non-scaling-stroke" class="st7" d="M210,317.4c0,0.8-0.6,1.4-1.4,1.4c-0.8,0-1.4-0.6-1.4-1.4
			c0-0.8,0.6-1.4,1.4-1.4C209.4,316,210,316.6,210,317.4"/>
		<path vector-effect="non-scaling-stroke" class="st7" d="M212.3,293.7c0,0.8-0.6,1.4-1.4,1.4c-0.8,0-1.4-0.6-1.4-1.4
			s0.6-1.4,1.4-1.4C211.7,292.3,212.3,292.9,212.3,293.7"/>
		<path vector-effect="non-scaling-stroke" class="st7" d="M198,340c0,0.8-0.6,1.4-1.4,1.4s-1.4-0.6-1.4-1.4c0-0.8,0.6-1.4,1.4-1.4
			S198,339.2,198,340"/>
		<path vector-effect="non-scaling-stroke" class="st7" d="M204.9,340.3c0,0.8-0.6,1.4-1.4,1.4c-0.8,0-1.4-0.6-1.4-1.4
			c0-0.8,0.6-1.4,1.4-1.4C204.3,338.9,204.9,339.5,204.9,340.3"/>
		<path vector-effect="non-scaling-stroke" class="st7" d="M225.1,366.3c0,0.8-0.6,1.4-1.4,1.4c-0.8,0-1.4-0.6-1.4-1.4
			c0-0.8,0.6-1.4,1.4-1.4C224.5,364.9,225.1,365.5,225.1,366.3"/>
		<path vector-effect="non-scaling-stroke" class="st7" d="M229.3,357.5c0,0.8-0.6,1.4-1.4,1.4c-0.8,0-1.4-0.6-1.4-1.4
			s0.6-1.4,1.4-1.4C228.6,356.1,229.3,356.7,229.3,357.5"/>
		<path vector-effect="non-scaling-stroke" class="st7" d="M234.7,370.5c0,0.8-0.6,1.4-1.4,1.4s-1.4-0.6-1.4-1.4s0.6-1.4,1.4-1.4
			S234.7,369.7,234.7,370.5"/>
	</g>
	<g transform="matrix(0.999751,0,0,0.999751,59.0404,82.6566)">
		<path vector-effect="none" class="st8" d="M243.8,389.9l56.3,62.7l69.2-48.6l138.9-28.1l-54.2-5.6l46.4-107.4l-0.9-65.9l0,0l0,0
			l0,0l-7.5-141l0,0l0,0"/>
	</g>
	<g transform="matrix(0.999751,0,0,0.999751,59.0404,82.6566)">
		<path vector-effect="non-scaling-stroke" class="st9" d="M245.2,389.9c0,0.8-0.6,1.4-1.4,1.4c-0.8,0-1.4-0.6-1.4-1.4
			c0-0.8,0.6-1.4,1.4-1.4C244.6,388.5,245.2,389.1,245.2,389.9"/>
		<path vector-effect="non-scaling-stroke" class="st9" d="M301.5,452.6c0,0.8-0.6,1.4-1.4,1.4c-0.8,0-1.4-0.6-1.4-1.4
			s0.6-1.4,1.4-1.4C300.9,451.2,301.5,451.8,301.5,452.6"/>
		<path vector-effect="non-scaling-stroke" class="st9" d="M370.7,403.9c0,0.8-0.6,1.4-1.4,1.4c-0.8,0-1.4-0.6-1.4-1.4
			c0-0.8,0.6-1.4,1.4-1.4C370.1,402.5,370.7,403.2,370.7,403.9"/>
		<path vector-effect="non-scaling-stroke" class="st9" d="M509.6,375.8c0,0.8-0.6,1.4-1.4,1.4c-0.8,0-1.4-0.6-1.4-1.4
			c0-0.8,0.6-1.4,1.4-1.4C509,374.4,509.6,375.1,509.6,375.8"/>
		<path vector-effect="non-scaling-stroke" class="st9" d="M455.3,370.2c0,0.8-0.6,1.4-1.4,1.4c-0.8,0-1.4-0.6-1.4-1.4
			s0.6-1.4,1.4-1.4C454.7,368.8,455.3,369.4,455.3,370.2"/>
		<path vector-effect="non-scaling-stroke" class="st9" d="M501.7,262.8c0,0.8-0.6,1.4-1.4,1.4c-0.8,0-1.4-0.6-1.4-1.4
			c0-0.8,0.6-1.4,1.4-1.4C501.1,261.4,501.7,262,501.7,262.8"/>
		<path vector-effect="non-scaling-stroke" class="st9" d="M500.9,197c0,0.8-0.6,1.4-1.4,1.4s-1.4-0.6-1.4-1.4
			c0-0.8,0.6-1.4,1.4-1.4S500.9,196.2,500.9,197"/>
		<path vector-effect="non-scaling-stroke" class="st9" d="M500.9,197c0,0.8-0.6,1.4-1.4,1.4s-1.4-0.6-1.4-1.4
			c0-0.8,0.6-1.4,1.4-1.4S500.9,196.2,500.9,197"/>
		<path vector-effect="non-scaling-stroke" class="st9" d="M500.9,197c0,0.8-0.6,1.4-1.4,1.4s-1.4-0.6-1.4-1.4
			c0-0.8,0.6-1.4,1.4-1.4S500.9,196.2,500.9,197"/>
		<path vector-effect="non-scaling-stroke" class="st9" d="M500.9,197c0,0.8-0.6,1.4-1.4,1.4s-1.4-0.6-1.4-1.4
			c0-0.8,0.6-1.4,1.4-1.4S500.9,196.2,500.9,197"/>
		<path vector-effect="non-scaling-stroke" class="st9" d="M493.3,55.9c0,0.8-0.6,1.4-1.4,1.4c-0.8,0-1.4-0.6-1.4-1.4
			c0-0.8,0.6-1.4,1.4-1.4C492.7,54.5,493.3,55.2,493.3,55.9"/>
		<path vector-effect="non-scaling-stroke" class="st9" d="M493.3,55.9c0,0.8-0.6,1.4-1.4,1.4c-0.8,0-1.4-0.6-1.4-1.4
			c0-0.8,0.6-1.4,1.4-1.4C492.7,54.5,493.3,55.2,493.3,55.9"/>
		<path vector-effect="non-scaling-stroke" class="st9" d="M493.3,55.9c0,0.8-0.6,1.4-1.4,1.4c-0.8,0-1.4-0.6-1.4-1.4
			c0-0.8,0.6-1.4,1.4-1.4C492.7,54.5,493.3,55.2,493.3,55.9"/>
	</g>
	<g transform="matrix(0.999751,0,0,0.999751,59.0404,82.6566)">
		<path vector-effect="none" class="st10" d="M251.3,386l-1.7,1.1"/>
	</g>
	<g transform="matrix(0.999751,0,0,0.999751,59.0404,82.6566)">
		<path vector-effect="non-scaling-stroke" class="st11" d="M252.7,386c0,0.8-0.6,1.4-1.4,1.4c-0.8,0-1.4-0.6-1.4-1.4
			c0-0.8,0.6-1.4,1.4-1.4C252.1,384.6,252.7,385.2,252.7,386"/>
		<path vector-effect="non-scaling-stroke" class="st11" d="M251,387.1c0,0.8-0.6,1.4-1.4,1.4c-0.8,0-1.4-0.6-1.4-1.4
			s0.6-1.4,1.4-1.4C250.3,385.7,251,386.3,251,387.1"/>
		<path vector-effect="non-scaling-stroke" class="st11" d="M250.8,387.2c0,0.8-0.6,1.4-1.4,1.4c-0.8,0-1.4-0.6-1.4-1.4
			c0-0.8,0.6-1.4,1.4-1.4C250.2,385.8,250.8,386.4,250.8,387.2"/>
		<path vector-effect="non-scaling-stroke" class="st11" d="M250.8,387.2c0,0.8-0.6,1.4-1.4,1.4c-0.8,0-1.4-0.6-1.4-1.4
			c0-0.8,0.6-1.4,1.4-1.4C250.2,385.8,250.8,386.4,250.8,387.2"/>
	</g>
	<g transform="matrix(11.8081,0,0,11.8081,59.0404,82.6566)">
	</g>
	<g transform="matrix(11.8081,0,0,11.8081,59.0404,82.6566)">
	</g>
	<g transform="matrix(11.8081,0,0,11.8081,59.0404,82.6566)">
	</g>
	<g transform="matrix(1,0,0,1,0,0)">
	</g>
	<g transform="matrix(11.8081,0,0,11.8081,59.0404,82.6566)">
	</g>
	<g transform="matrix(11.8081,0,0,11.8081,59.0404,82.6566)">
	</g>
	<g transform="matrix(11.8081,0,0,11.8081,59.0404,82.6566)">
	</g>
	<g transform="matrix(11.8081,0,0,11.8081,59.0404,82.6566)">
	</g>
	<g transform="matrix(11.8081,0,0,11.8081,0,0)">
	</g>
	<g transform="matrix(11.8081,0,0,11.8081,0,0)">
	</g>
	<g transform="matrix(1,0,0,1,0,0)">
	</g>
</g>
</svg>
